<?xml version="1.0" encoding="utf-8"?>
<!-- Generator: Adobe Illustrator 22.1.0, SVG Export Plug-In . SVG Version: 6.00 Build 0)  -->
<svg version="1.1" id="Capa_1" xmlns="http://www.w3.org/2000/svg" xmlns:xlink="http://www.w3.org/1999/xlink" x="0px" y="0px"
	 viewBox="0 0 202 133" style="enable-background:new 0 0 202 133;" xml:space="preserve">
<style type="text/css">
	.st0{fill:#FFFFFF;}
</style>
<g>
	<path class="st0" d="M119.9,1.5C100.3,24,81,46.2,61.4,68.7c21.3,20.9,42.6,41.7,64.1,62.7c-0.7,0.1-1.1,0.2-1.6,0.2
		c-10.9,0-21.8,0-32.8-0.1c-1,0-2.2-0.7-2.9-1.4c-18.8-18.5-37.5-37.1-56.2-55.7c-0.6-0.6-1-1.4-1.5-2.1c-0.2,0.1-0.5,0.3-0.7,0.4
		c0,19.5,0,39.1,0,58.7c-9.3,0-18.2,0-27.3,0c0-43.5,0-86.8,0-130.4c8.9,0,17.9,0,27.2,0c0,21.8,0,43.7,0,65.5
		c0.2,0,0.3,0.1,0.5,0.1c3.5-4.1,7.1-8.2,10.6-12.4c14.9-17.3,29.7-34.7,44.6-52C86,1.9,87,1.3,87.8,1.3c10.3-0.1,20.7,0,31,0
		C119,1.3,119.2,1.3,119.9,1.5z"/>
	<path class="st0" d="M77,68c8.5-9.2,16.9-18.3,25.7-27.9c0,9.3,0,18,0,26.8c0.7,0,1.1,0.1,1.5,0.1c10.8,0,21.6,0.1,32.3,0
		c11.6-0.1,21.8-8.4,23.2-18.9c1.7-12.1-3.2-23.4-16-27.4c0.4-0.5,0.8-1,1.2-1.5c5.1-5.5,10.3-11,15.4-16.6c0.7-0.8,1.3-1.2,2.5-0.7
		c27.5,11.2,37,46.2,18.7,69.5c-5.8,7.4-13.4,12.5-22.1,15.8c-0.5,0.2-1.1,0.4-1.6,0.6c-0.1,0-0.1,0.1-0.6,0.6
		c14.1,14.3,28.2,28.5,42.5,43c-0.6,0.1-1.1,0.2-1.6,0.2c-11.8,0-23.6,0.1-35.3-0.1c-1.1,0-2.4-0.8-3.2-1.6
		c-18.4-19-36.8-38-55.2-57c-0.4-0.5-0.8-1-1.1-1.5c-0.2,0.1-0.3,0.2-0.5,0.3c0,7.3,0,14.7,0,22c-0.2,0.1-0.4,0.2-0.6,0.3
		C94,85.4,85.6,76.7,77,68z"/>
</g>
</svg>
